<svg width="161" height="47" viewBox="0 0 161 47" fill="none" xmlns="http://www.w3.org/2000/svg">
<path d="M160.106 41.147C160.106 43.6257 158.056 45.6334 155.521 45.6334H5.4852C2.95131 45.6334 0.894531 43.6257 0.894531 41.147V5.36967C0.894531 2.89221 2.95131 0.877441 5.4852 0.877441H155.52C158.056 0.877441 160.104 2.89221 160.104 5.36967L160.106 41.147Z" fill="black"/>
<path d="M155.037 0.931572C157.798 0.931572 160.044 3.12196 160.044 5.81379V40.6971C160.044 43.3889 157.798 45.5793 155.037 45.5793H5.96296C3.20211 45.5793 0.955564 43.3889 0.955564 40.6971V5.81379C0.955564 3.12196 3.20211 0.931572 5.96296 0.931572H155.037ZM155.037 -0.000100016H5.96296C2.68482 -0.000100016 0 2.6176 0 5.81379V40.6971C0 43.8933 2.68482 46.511 5.96296 46.511H155.037C158.315 46.511 161 43.8933 161 40.6971V5.81379C161 2.6176 158.315 -0.000100016 155.037 -0.000100016Z" fill="#A6A6A6"/>
<path d="M35.9308 23.0042C35.8962 19.2565 39.078 17.4333 39.2235 17.3484C37.4215 14.7868 34.6284 14.4368 33.6469 14.4089C31.3011 14.1682 29.0256 15.7775 27.8307 15.7775C26.6118 15.7775 24.7717 14.4322 22.7884 14.4717C20.2362 14.5101 17.8487 15.9507 16.5392 18.1879C13.8368 22.7495 15.8523 29.4529 18.4414 33.1401C19.7365 34.9459 21.2499 36.9621 23.2308 36.8912C25.1688 36.8133 25.8927 35.6866 28.2314 35.6866C30.5486 35.6866 31.2284 36.8912 33.2486 36.8459C35.3285 36.8133 36.638 35.0319 37.8878 33.2099C39.3845 31.1401 39.9856 29.1018 40.0094 28.9971C39.9605 28.9808 35.9701 27.496 35.9308 23.0042Z" fill="white"/>
<path d="M32.1145 11.9834C33.1568 10.7124 33.87 8.98339 33.672 7.22876C32.1634 7.29388 30.2767 8.24619 29.1902 9.4892C28.229 10.5845 27.3703 12.3799 27.5921 14.0682C29.2868 14.1915 31.0268 13.2345 32.1145 11.9834Z" fill="white"/>
<path d="M63.9769 36.632H61.2685L59.7849 32.0867H54.6282L53.2149 36.632H50.5781L55.6872 21.1577H58.8428L63.9769 36.632ZM59.3377 30.1797L57.996 26.1391C57.8541 25.7263 57.5882 24.7542 57.1958 23.224H57.1481C56.9919 23.8821 56.7402 24.8542 56.3944 26.1391L55.0766 30.1797H59.3377Z" fill="white"/>
<path d="M77.1155 30.9157C77.1155 32.8134 76.5895 34.3134 75.5377 35.4145C74.5955 36.3947 73.4256 36.8843 72.0291 36.8843C70.5216 36.8843 69.4388 36.3564 68.7793 35.3006H68.7315V41.1784H66.1889V29.1472C66.1889 27.9541 66.1567 26.7297 66.0947 25.4739H68.3308L68.4728 27.2425H68.5205C69.3684 25.91 70.6552 25.2449 72.3821 25.2449C73.7321 25.2449 74.8591 25.7646 75.7607 26.8053C76.6647 27.8472 77.1155 29.2169 77.1155 30.9157ZM74.5252 31.0064C74.5252 29.9204 74.2747 29.0251 73.7714 28.3204C73.2217 27.5855 72.4834 27.2181 71.558 27.2181C70.9307 27.2181 70.3606 27.4228 69.8514 27.8262C69.341 28.2332 69.007 28.7646 68.8508 29.4227C68.7721 29.7297 68.7327 29.9809 68.7327 30.1785V32.039C68.7327 32.8506 68.988 33.5355 69.4984 34.0948C70.0088 34.6541 70.6719 34.9331 71.4876 34.9331C72.4453 34.9331 73.1906 34.5727 73.7237 33.8541C74.258 33.1343 74.5252 32.1855 74.5252 31.0064Z" fill="white"/>
<path d="M90.2783 30.9157C90.2783 32.8134 89.7524 34.3134 88.6993 35.4145C87.7584 36.3947 86.5885 36.8843 85.1919 36.8843C83.6845 36.8843 82.6016 36.3564 81.9433 35.3006H81.8956V41.1784H79.353V29.1472C79.353 27.9541 79.3208 26.7297 79.2588 25.4739H81.4949L81.6368 27.2425H81.6845C82.5313 25.91 83.8181 25.2449 85.5461 25.2449C86.895 25.2449 88.022 25.7646 88.9259 26.8053C89.8264 27.8472 90.2783 29.2169 90.2783 30.9157ZM87.688 31.0064C87.688 29.9204 87.4364 29.0251 86.9331 28.3204C86.3833 27.5855 85.6475 27.2181 84.7209 27.2181C84.0924 27.2181 83.5235 27.4228 83.0131 27.8262C82.5026 28.2332 82.1699 28.7646 82.0137 29.4227C81.9362 29.7297 81.8956 29.9809 81.8956 30.1785V32.039C81.8956 32.8506 82.1508 33.5355 82.6589 34.0948C83.1693 34.6529 83.8324 34.9331 84.6505 34.9331C85.6082 34.9331 86.3535 34.5727 86.8866 33.8541C87.4209 33.1343 87.688 32.1855 87.688 31.0064Z" fill="white"/>
<path d="M104.994 32.2927C104.994 33.6089 104.526 34.6798 103.585 35.5066C102.551 36.41 101.111 36.8612 99.2617 36.8612C97.5539 36.8612 96.1848 36.5403 95.1484 35.8973L95.7376 33.831C96.8538 34.4891 98.0786 34.8194 99.4132 34.8194C100.371 34.8194 101.116 34.6077 101.652 34.1868C102.185 33.7659 102.451 33.2008 102.451 32.4961C102.451 31.8682 102.231 31.3392 101.791 30.9101C101.353 30.481 100.622 30.0822 99.6016 29.7136C96.8228 28.7032 95.4347 27.2229 95.4347 25.2765C95.4347 24.0044 95.9212 22.9614 96.8956 22.1497C97.8664 21.337 99.1615 20.9312 100.781 20.9312C102.225 20.9312 103.425 21.1765 104.383 21.666L103.747 23.6869C102.853 23.2125 101.841 22.9753 100.709 22.9753C99.8151 22.9753 99.1162 23.1904 98.6153 23.6183C98.1919 24.0009 97.9797 24.4672 97.9797 25.0195C97.9797 25.6311 98.2217 26.1369 98.7083 26.5346C99.1317 26.902 99.9009 27.2997 101.017 27.7287C102.383 28.2648 103.386 28.8915 104.031 29.6101C104.674 30.3264 104.994 31.2229 104.994 32.2927Z" fill="white"/>
<path d="M113.401 27.3345H110.599V32.7519C110.599 34.1298 111.092 34.8181 112.082 34.8181C112.537 34.8181 112.913 34.7798 113.212 34.703L113.282 36.5855C112.781 36.7681 112.121 36.86 111.305 36.86C110.3 36.86 109.516 36.5611 108.949 35.9646C108.385 35.367 108.101 34.3646 108.101 32.9565V27.3322H106.432V25.4717H108.101V23.4287L110.599 22.6938V25.4717H113.401V27.3345Z" fill="white"/>
<path d="M126.046 30.9614C126.046 32.6765 125.543 34.0846 124.539 35.1858C123.486 36.3195 122.088 36.8846 120.345 36.8846C118.666 36.8846 117.329 36.3416 116.332 35.2555C115.335 34.1695 114.837 32.7986 114.837 31.1463C114.837 29.4172 115.35 28.001 116.379 26.8998C117.406 25.7975 118.792 25.2463 120.534 25.2463C122.213 25.2463 123.564 25.7894 124.584 26.8766C125.56 27.9312 126.046 29.2928 126.046 30.9614ZM123.408 31.0416C123.408 30.0126 123.183 29.13 122.726 28.394C122.193 27.5033 121.431 27.0591 120.443 27.0591C119.421 27.0591 118.645 27.5045 118.112 28.394C117.655 29.1312 117.43 30.0277 117.43 31.0881C117.43 32.1172 117.655 32.9997 118.112 33.7346C118.662 34.6253 119.43 35.0695 120.421 35.0695C121.391 35.0695 122.153 34.616 122.703 33.7114C123.172 32.9614 123.408 32.0695 123.408 31.0416Z" fill="white"/>
<path d="M134.311 27.6541C134.06 27.6088 133.791 27.5855 133.51 27.5855C132.615 27.5855 131.924 27.9146 131.437 28.5739C131.014 29.1553 130.801 29.8902 130.801 30.7774V36.632H128.26L128.284 28.9879C128.284 27.7018 128.252 26.5309 128.188 25.4751H130.403L130.496 27.61H130.567C130.835 26.8763 131.258 26.2856 131.838 25.8425C132.404 25.4437 133.016 25.2449 133.676 25.2449C133.911 25.2449 134.123 25.2612 134.311 25.2902V27.6541Z" fill="white"/>
<path d="M145.682 30.5252C145.682 30.9694 145.652 31.3438 145.589 31.6496H137.961C137.991 32.7519 138.36 33.595 139.068 34.1763C139.711 34.6961 140.542 34.9566 141.563 34.9566C142.692 34.9566 143.723 34.781 144.649 34.4287L145.048 36.1496C143.965 36.61 142.686 36.8391 141.211 36.8391C139.437 36.8391 138.044 36.3298 137.03 35.3124C136.019 34.2949 135.512 32.9287 135.512 31.2147C135.512 29.5322 135.983 28.1311 136.926 27.0136C137.914 25.8206 139.248 25.2241 140.927 25.2241C142.577 25.2241 143.825 25.8206 144.673 27.0136C145.345 27.9613 145.682 29.1334 145.682 30.5252ZM143.258 29.8822C143.274 29.1473 143.109 28.5125 142.764 27.9764C142.324 27.2869 141.648 26.9427 140.738 26.9427C139.906 26.9427 139.23 27.2787 138.714 27.9532C138.29 28.4892 138.039 29.1322 137.961 29.881H143.258V29.8822Z" fill="white"/>
<path d="M58.4969 11.6381C58.4969 13.0067 58.0759 14.0369 57.2351 14.7287C56.4564 15.3671 55.3496 15.6869 53.9161 15.6869C53.2054 15.6869 52.5971 15.6566 52.0879 15.5962V8.11834C52.7522 8.01369 53.4677 7.96021 54.2405 7.96021C55.606 7.96021 56.6352 8.24974 57.3293 8.8288C58.1069 9.48344 58.4969 10.4195 58.4969 11.6381ZM57.1791 11.6718C57.1791 10.7846 56.9382 10.1044 56.4564 9.62995C55.9746 9.1567 55.2709 8.9195 54.3443 8.9195C53.9507 8.9195 53.6156 8.94508 53.3377 8.99856V14.6834C53.4916 14.7066 53.773 14.7171 54.1821 14.7171C55.1385 14.7171 55.8768 14.4578 56.3967 13.9392C56.9167 13.4206 57.1791 12.6648 57.1791 11.6718Z" fill="white"/>
<path d="M65.4847 12.8333C65.4847 13.6763 65.2378 14.367 64.7441 14.9089C64.2265 15.4658 63.5408 15.7437 62.6845 15.7437C61.8592 15.7437 61.2021 15.4775 60.712 14.9426C60.223 14.4089 59.9785 13.7356 59.9785 12.924C59.9785 12.0752 60.2302 11.3787 60.7358 10.838C61.2415 10.2973 61.9212 10.0264 62.7775 10.0264C63.6028 10.0264 64.2659 10.2926 64.768 10.8264C65.245 11.345 65.4847 12.0147 65.4847 12.8333ZM64.1884 12.8728C64.1884 12.367 64.0763 11.9333 63.8533 11.5717C63.5909 11.1345 63.2176 10.9159 62.7322 10.9159C62.2301 10.9159 61.8485 11.1345 61.5861 11.5717C61.3619 11.9333 61.251 12.374 61.251 12.8949C61.251 13.4007 61.3631 13.8345 61.5861 14.1961C61.8568 14.6333 62.2337 14.8519 62.7203 14.8519C63.1973 14.8519 63.5718 14.6298 63.8413 14.1845C64.0727 13.8159 64.1884 13.3787 64.1884 12.8728Z" fill="white"/>
<path d="M74.8534 10.1382L73.0943 15.6195H71.9494L71.2208 13.2393C71.0359 12.6451 70.8857 12.0544 70.7688 11.4684H70.7461C70.6376 12.0707 70.4873 12.6602 70.2941 13.2393L69.5201 15.6195H68.3621L66.708 10.1382H67.9924L68.6281 12.744C68.7819 13.3602 68.9083 13.9474 69.0097 14.5032H69.0324C69.1254 14.0451 69.2792 13.4614 69.4963 12.7556L70.2941 10.1393H71.3126L72.0771 12.6998C72.2619 13.3242 72.4122 13.9253 72.5279 14.5044H72.5624C72.6471 13.9405 72.7747 13.3393 72.9441 12.6998L73.6262 10.1393H74.8534V10.1382Z" fill="white"/>
<path d="M81.333 15.6196H80.0832V12.4801C80.0832 11.5127 79.7064 11.029 78.9503 11.029C78.5794 11.029 78.28 11.1616 78.0475 11.4278C77.8173 11.6941 77.7004 12.0081 77.7004 12.3674V15.6185H76.4506V11.7046C76.4506 11.2232 76.4351 10.7011 76.4053 10.136H77.5036L77.5621 10.993H77.5967C77.7422 10.7267 77.9592 10.5069 78.2442 10.3313C78.5829 10.1267 78.9622 10.0232 79.3772 10.0232C79.9019 10.0232 80.3384 10.1883 80.6855 10.5197C81.1172 10.9255 81.333 11.5313 81.333 12.336V15.6196Z" fill="white"/>
<path d="M84.7799 15.6195H83.5312V7.62305H84.7799V15.6195Z" fill="white"/>
<path d="M92.138 12.8333C92.138 13.6763 91.8912 14.367 91.3974 14.9089C90.8799 15.4658 90.1929 15.7437 89.3378 15.7437C88.5114 15.7437 87.8542 15.4775 87.3653 14.9426C86.8763 14.4089 86.6318 13.7356 86.6318 12.924C86.6318 12.0752 86.8835 11.3787 87.3891 10.838C87.8948 10.2973 88.5746 10.0264 89.4297 10.0264C90.2561 10.0264 90.918 10.2926 91.4213 10.8264C91.8983 11.345 92.138 12.0147 92.138 12.8333ZM90.8405 12.8728C90.8405 12.367 90.7284 11.9333 90.5054 11.5717C90.2442 11.1345 89.8697 10.9159 89.3855 10.9159C88.8823 10.9159 88.5006 11.1345 88.2394 11.5717C88.0152 11.9333 87.9043 12.374 87.9043 12.8949C87.9043 13.4007 88.0164 13.8345 88.2394 14.1961C88.5102 14.6333 88.887 14.8519 89.3736 14.8519C89.8506 14.8519 90.2239 14.6298 90.4934 14.1845C90.726 13.8159 90.8405 13.3787 90.8405 12.8728Z" fill="white"/>
<path d="M98.1866 15.6193H97.0644L96.9714 14.9879H96.9368C96.5528 15.4914 96.0054 15.7437 95.2946 15.7437C94.7639 15.7437 94.3346 15.5775 94.0114 15.2472C93.718 14.9472 93.5713 14.574 93.5713 14.131C93.5713 13.4612 93.8575 12.9508 94.4335 12.5973C95.0084 12.2438 95.8169 12.0705 96.8581 12.0787V11.9763C96.8581 11.2543 96.4693 10.8938 95.6905 10.8938C95.136 10.8938 94.647 11.0298 94.2248 11.2996L93.9708 10.4996C94.4932 10.1845 95.1384 10.0264 95.8992 10.0264C97.3685 10.0264 98.1055 10.7822 98.1055 12.2938V14.3124C98.1055 14.86 98.1329 15.2961 98.1866 15.6193ZM96.8891 13.7356V12.8903C95.5104 12.867 94.8211 13.2356 94.8211 13.9949C94.8211 14.281 94.8998 14.4949 95.0608 14.6379C95.2218 14.781 95.427 14.8519 95.6714 14.8519C95.9457 14.8519 96.2021 14.767 96.4359 14.5984C96.6708 14.4286 96.8151 14.2135 96.8688 13.9496C96.8819 13.8903 96.8891 13.8182 96.8891 13.7356Z" fill="white"/>
<path d="M105.289 15.6195H104.179L104.121 14.7392H104.086C103.732 15.409 103.129 15.7439 102.281 15.7439C101.603 15.7439 101.039 15.4846 100.592 14.966C100.145 14.4474 99.9219 13.7741 99.9219 12.9474C99.9219 12.0602 100.164 11.3416 100.651 10.7928C101.122 10.2812 101.699 10.0253 102.386 10.0253C103.141 10.0253 103.669 10.273 103.97 10.7695H103.993V7.62305H105.244V14.1427C105.244 14.6765 105.259 15.1683 105.289 15.6195ZM103.993 13.3079V12.3939C103.993 12.2358 103.981 12.1079 103.959 12.0102C103.888 11.7172 103.737 11.4707 103.507 11.2718C103.274 11.073 102.994 10.973 102.671 10.973C102.204 10.973 101.84 11.1532 101.571 11.5149C101.305 11.8765 101.171 12.3381 101.171 12.9021C101.171 13.4439 101.298 13.8834 101.555 14.2218C101.825 14.5823 102.19 14.7625 102.647 14.7625C103.057 14.7625 103.385 14.6125 103.634 14.3113C103.875 14.0334 103.993 13.6986 103.993 13.3079Z" fill="white"/>
<path d="M115.978 12.8333C115.978 13.6763 115.731 14.367 115.237 14.9089C114.72 15.4658 114.035 15.7437 113.178 15.7437C112.354 15.7437 111.696 15.4775 111.205 14.9426C110.716 14.4089 110.472 13.7356 110.472 12.924C110.472 12.0752 110.723 11.3787 111.229 10.838C111.735 10.2973 112.414 10.0264 113.272 10.0264C114.096 10.0264 114.76 10.2926 115.261 10.8264C115.738 11.345 115.978 12.0147 115.978 12.8333ZM114.683 12.8728C114.683 12.367 114.571 11.9333 114.348 11.5717C114.084 11.1345 113.712 10.9159 113.225 10.9159C112.724 10.9159 112.343 11.1345 112.079 11.5717C111.855 11.9333 111.744 12.374 111.744 12.8949C111.744 13.4007 111.856 13.8345 112.079 14.1961C112.35 14.6333 112.727 14.8519 113.213 14.8519C113.69 14.8519 114.066 14.6298 114.336 14.1845C114.566 13.8159 114.683 13.3787 114.683 12.8728Z" fill="white"/>
<path d="M122.698 15.6196H121.449V12.4801C121.449 11.5127 121.073 11.029 120.315 11.029C119.944 11.029 119.645 11.1616 119.414 11.4278C119.182 11.6941 119.067 12.0081 119.067 12.3674V15.6185H117.816V11.7046C117.816 11.2232 117.801 10.7011 117.771 10.136H118.869L118.927 10.993H118.962C119.108 10.7267 119.325 10.5069 119.609 10.3313C119.949 10.1267 120.327 10.0232 120.743 10.0232C121.267 10.0232 121.703 10.1883 122.05 10.5197C122.483 10.9255 122.698 11.5313 122.698 12.336V15.6196Z" fill="white"/>
<path d="M131.109 11.0511H129.733V13.7138C129.733 14.3906 129.978 14.7289 130.462 14.7289C130.686 14.7289 130.872 14.7103 131.019 14.672L131.051 15.5964C130.804 15.6871 130.48 15.7324 130.08 15.7324C129.587 15.7324 129.203 15.5859 128.925 15.2929C128.646 14.9999 128.507 14.5068 128.507 13.815V11.0511H127.686V10.1383H128.507V9.13365L129.732 8.77319V10.1371H131.108V11.0511H131.109Z" fill="white"/>
<path d="M137.726 15.6195H136.475V12.5032C136.475 11.5207 136.098 11.0288 135.343 11.0288C134.764 11.0288 134.368 11.3137 134.151 11.8835C134.114 12.0032 134.092 12.1497 134.092 12.3218V15.6183H132.844V7.62305H134.092V10.9265H134.116C134.51 10.3253 135.074 10.0253 135.805 10.0253C136.323 10.0253 136.751 10.1905 137.091 10.5219C137.514 10.9346 137.726 11.5486 137.726 12.3602V15.6195Z" fill="white"/>
<path d="M144.551 12.6196C144.551 12.8382 144.534 13.0219 144.504 13.1719H140.756C140.773 13.7137 140.952 14.1265 141.299 14.4126C141.616 14.6684 142.025 14.7963 142.526 14.7963C143.08 14.7963 143.586 14.7102 144.042 14.537L144.237 15.3835C143.704 15.6091 143.077 15.7219 142.351 15.7219C141.48 15.7219 140.794 15.4719 140.298 14.9719C139.8 14.4719 139.553 13.801 139.553 12.9591C139.553 12.1324 139.783 11.444 140.247 10.8952C140.731 10.3091 141.386 10.0161 142.212 10.0161C143.021 10.0161 143.635 10.3091 144.05 10.8952C144.385 11.3603 144.551 11.9359 144.551 12.6196ZM143.358 12.3045C143.368 11.9428 143.286 11.6312 143.116 11.3684C142.899 11.0301 142.569 10.8603 142.122 10.8603C141.714 10.8603 141.381 11.0254 141.127 11.3568C140.919 11.6207 140.797 11.9359 140.756 12.3045H143.358Z" fill="white"/>
</svg>
