<svg width="287" height="253" viewBox="0 0 287 253" fill="none" xmlns="http://www.w3.org/2000/svg">
<path d="M161.297 275.026C157.212 269.876 154.958 265.589 153.756 262.185L152.939 262.692C148.629 243.405 156.916 224.644 156.916 224.644L184.34 216.963C184.34 216.963 188.565 230.189 192.021 238.334C197.397 245.579 206.101 247.884 206.101 247.884L211.416 282.961C211.421 282.965 173.072 289.876 161.297 275.026Z" fill="#E54728"/>
<path d="M121.746 188.107C104.102 198.366 86.4814 203.535 66.1097 202.258L9.27641 173.834C2.04138 153.434 -3.55974 132.034 -2.54562 110.414C-1.53149 88.7933 6.83971 66.7737 23.5446 53.0126C31.4275 46.5194 40.8317 42.0685 48.6583 35.5048C59.7291 26.2181 67.4618 12.8608 80.1806 5.99664C100.355 -4.89112 128.605 -0.266521 138.272 21.0489C152.944 19.5136 170.907 34.0118 158.733 73.8444C155.4 84.7556 149.892 99.2679 151.7 110.531C156.916 143.077 145.526 174.285 121.746 188.107Z" fill="#2E0031"/>
<path d="M-7.12326 181.834C-0.45163 133.847 39.1743 125.508 39.1743 125.508L120.591 128.386C120.591 128.386 140.944 129.264 155.921 147.833C170.898 166.402 178.386 173.89 178.964 191.173C179.541 208.455 169.17 233.226 164.564 241.865C159.954 250.504 163.414 273.547 163.414 273.547C163.414 273.547 101.444 332.883 8.50642 319.821C11.1967 311.872 14.0325 303.445 14.8213 296.609C-5.37202 266.068 -12.6775 221.822 -7.12326 181.834Z" fill="#FF572F"/>
<path d="M165.522 271.025C165.682 271.767 165.301 272.546 164.536 272.757C163.832 272.95 162.963 272.523 162.804 271.771C161.381 265.198 161.034 258.409 161.794 251.728C162.564 244.939 164.386 238.334 167.231 232.122C168.799 228.699 170.691 225.432 172.875 222.361C173.316 221.741 174.105 221.446 174.799 221.854C175.41 222.211 175.748 223.159 175.307 223.779C171.546 229.061 168.677 234.934 166.813 241.141C164.954 247.315 164.076 253.752 164.236 260.198C164.325 263.846 164.752 267.461 165.522 271.025Z" fill="#180205"/>
<path d="M63.1799 66.7505C62.4099 51.5809 75.6592 53.6936 79.1195 60.7972C79.1195 60.7972 94.4816 61.3747 103.89 47.1629C113.299 32.9557 128.342 31.9933 134.676 40.2518C134.676 40.2518 144.211 38.524 145.559 52.9237C146.901 67.3233 141.113 112.64 111.938 112.067C111.938 112.067 112.144 123.203 112.914 127.044L120.595 128.387C120.595 128.387 114.623 146.702 85.8381 147.782C49.9305 149.125 39.1789 125.509 39.1789 125.509L60.3018 120.518C60.3018 120.518 74.509 101.7 77.1992 79.812C77.1992 79.8074 63.9499 81.9201 63.1799 66.7505Z" fill="#FFBEAE"/>
<path d="M57.7385 144.06C52.3299 141.652 47.3156 138.403 42.8835 134.473C42.3154 133.966 42.367 132.994 42.8835 132.483C43.4469 131.919 44.3061 131.975 44.8742 132.483C52.3862 139.14 61.7199 143.614 71.5748 145.464C81.486 147.323 91.7962 146.267 101.205 142.694C106.468 140.694 111.468 137.863 115.868 134.351C116.459 133.877 117.281 133.769 117.858 134.351C118.351 134.844 118.455 135.868 117.858 136.342C109.459 143.051 99.3458 147.319 88.6881 148.713C78.1665 150.089 67.415 148.37 57.7385 144.06Z" fill="#180205"/>
<path d="M61.2456 245.127C60.255 241.418 59.2596 237.709 58.269 234C56.6915 228.112 55.1186 222.229 53.5411 216.342C53.1795 214.99 52.8181 213.642 52.4565 212.29C51.987 210.539 54.7054 209.788 55.1749 211.539C56.1656 215.248 57.161 218.957 58.1516 222.666C59.7291 228.554 61.3019 234.436 62.8795 240.324C63.241 241.676 63.6025 243.024 63.964 244.376C64.4335 246.132 61.7151 246.878 61.2456 245.127Z" fill="#180205"/>
<path d="M41.2918 198.094L100.623 132.425C100.623 132.425 127.891 135.496 149.249 140.918C170.607 146.341 190.086 156.623 190.086 156.623C190.086 156.623 200.857 146.252 219.674 143.768C238.492 141.285 264.606 138.956 264.606 138.956L272.545 148.581L202.392 183.408L44.4562 213.179L41.2918 198.094Z" fill="#FCF4E6"/>
<path d="M130.577 234.961L41.2919 216.969L101.374 145.065L178.992 161.803H194.523L276.897 147.84L219.867 216.969L154.198 232.083L130.577 234.961Z" fill="#0E6AC3"/>
<path d="M178.992 161.802H194.523L154.198 232.082L130.577 234.96L178.992 161.802Z" fill="#1058C1"/>
<path d="M147.287 224.648L135 234.958C135 234.958 121.558 228.54 115.797 222.15C115.797 222.15 125.783 215.183 127.319 198.285C128.854 181.388 137.112 182.538 140.953 184.459C144.794 186.379 143.831 192.14 149.212 193.29C154.587 194.44 174.94 180.618 183.969 184.266C192.993 187.914 190.88 198.473 185.119 205.196C179.354 211.915 165.912 222.019 147.287 224.648Z" fill="#FFBEAE"/>
<path d="M32.6482 308.116C9.5769 304.82 -3.71941 264.734 -7.08572 226.352C-9.01538 204.36 62.6025 244.752 62.6025 244.752C72.3963 241.874 119.055 216.967 119.055 216.967C129.427 227.202 139.216 233.808 139.216 233.808C127.699 251.09 68.9408 313.304 32.6482 308.116Z" fill="#FF572F"/>
<path d="M57.5594 245.877C57.7062 245.815 57.2989 245.986 57.5594 245.877V245.877Z" fill="#180205"/>
<path d="M119.769 218.183C119.45 218.347 119.131 218.511 118.811 218.68C118.562 218.441 118.309 218.206 118.06 217.962C118.633 218.037 119.201 218.108 119.769 218.183Z" fill="#180205"/>
<path d="M118.811 218.681C119.13 218.517 119.45 218.353 119.769 218.184C119.201 218.109 118.633 218.038 118.06 217.963C118.309 218.207 118.562 218.437 118.811 218.681C117.257 219.489 115.698 220.301 114.14 221.104C109.557 223.475 104.966 225.832 100.369 228.175C94.5801 231.123 88.7818 234.053 82.96 236.945C77.4574 239.677 71.9361 242.387 66.3678 244.983C62.6353 246.725 58.8745 248.551 54.973 249.889C54.7148 249.978 54.4518 250.063 54.1842 250.143C52.4423 250.659 51.7005 247.941 53.433 247.424C54.8321 247.011 56.1843 246.438 57.5317 245.88C57.5411 245.875 57.5458 245.875 57.5552 245.87C57.7008 245.809 57.297 245.978 57.5552 245.87C57.5646 245.866 57.5646 245.866 57.574 245.861C57.6726 245.819 57.7759 245.776 57.8745 245.734C58.128 245.626 58.3815 245.518 58.6304 245.41C59.1233 245.199 59.6116 244.983 60.0999 244.762C61.2079 244.269 62.3066 243.767 63.4052 243.26C68.8092 240.767 74.1568 238.156 79.4904 235.518C85.3544 232.621 91.195 229.677 97.0262 226.71C101.825 224.268 106.618 221.813 111.402 219.339C113.679 218.16 115.938 216.925 118.238 215.794C118.271 215.78 118.304 215.761 118.332 215.742C118.896 215.451 119.576 215.508 120.041 215.963C125.811 221.649 132.009 226.949 138.596 231.654C139.033 231.968 139.474 232.278 139.92 232.583C140.521 232.992 140.868 233.842 140.427 234.508C137.934 238.241 135.051 241.729 132.14 245.142C127.957 250.044 123.567 254.772 119.046 259.364C113.684 264.815 108.13 270.078 102.383 275.115C96.3267 280.426 90.0495 285.492 83.5046 290.182C77.2837 294.637 70.7999 298.769 63.9546 302.201C57.9168 305.229 51.5268 307.802 44.8646 309.046C38.7704 310.183 32.3195 310.281 26.5258 307.821C19.6523 304.905 14.4315 299.074 10.436 292.938C5.356 285.135 1.87228 276.299 -0.841431 267.43C-3.96362 257.227 -6.03413 246.72 -7.42386 236.147C-7.7666 233.536 -8.06239 230.917 -8.31593 228.292C-8.39105 227.536 -7.61636 226.884 -6.90742 226.884C-6.08578 226.884 -5.57404 227.531 -5.49892 228.292C-4.48009 238.795 -2.7617 249.241 -0.141876 259.467C2.21033 268.655 5.25742 277.773 9.73177 286.168C13.2108 292.698 17.7696 299.253 23.9576 303.267C26.7042 305.051 29.4555 306.192 32.728 306.704C32.7984 306.713 33.0895 306.755 33.1129 306.76C33.0801 306.755 33.0519 306.751 33.0191 306.751C33.0989 306.76 33.1176 306.765 33.1129 306.76C33.2256 306.774 33.343 306.788 33.4557 306.802C33.8125 306.844 34.1693 306.877 34.5261 306.905C35.2257 306.962 35.9299 306.99 36.6342 306.999C38.0615 307.018 39.4888 306.948 40.9067 306.802C41.2447 306.769 41.578 306.727 41.9114 306.685C42.0288 306.671 42.057 306.666 42.0617 306.666C42.0664 306.666 42.057 306.666 42.0617 306.666C42.0664 306.666 42.0945 306.661 42.2119 306.643C42.4138 306.614 42.6204 306.582 42.8223 306.549C43.5547 306.431 44.2871 306.3 45.0148 306.15C46.5688 305.83 48.1041 305.436 49.6253 304.985C52.7945 304.046 55.9026 302.849 58.7947 301.548C65.5086 298.525 71.8656 294.745 77.9598 290.623C84.4436 286.238 90.6363 281.435 96.6131 276.383C102.477 271.425 108.135 266.223 113.6 260.833C118.365 256.134 122.994 251.288 127.431 246.274C129.239 244.232 131.014 242.161 132.741 240.048C133.478 239.147 134.206 238.236 134.92 237.316C134.957 237.269 135.07 237.119 135.093 237.091C135.065 237.128 135.037 237.166 135.004 237.203C135.084 237.095 135.103 237.072 135.093 237.091C135.136 237.039 135.173 236.987 135.216 236.931C135.38 236.715 135.544 236.504 135.704 236.288C135.99 235.907 136.277 235.522 136.558 235.133C136.798 234.804 137.023 234.466 137.258 234.133C137.671 234.424 138.089 234.715 138.507 234.997C138.338 234.353 138.169 233.71 138 233.072C137.76 233.433 137.502 233.781 137.258 234.133C132.915 231.1 128.793 227.7 124.816 224.217C122.769 222.442 120.769 220.583 118.811 218.681Z" fill="#180205"/>
<path d="M135.003 237.227C135.032 237.189 135.06 237.151 135.093 237.113C135.108 237.099 135.089 237.122 135.003 237.227Z" fill="#180205"/>
<path d="M138.507 235.024C138.089 234.743 137.671 234.452 137.258 234.16C137.507 233.808 137.76 233.456 138 233.099C138.174 233.738 138.343 234.381 138.507 235.024Z" fill="#180205"/>
<path d="M206.232 190.008C209.303 182.693 233.431 167.993 246.938 184.144C260.451 200.295 241.178 222.145 241.178 222.145L235.802 237.258C224.28 241.484 207.383 231.883 207.383 231.883L211.223 226.507C207.383 214.22 212.374 209.178 212.374 209.178C205.852 205.295 203.162 197.323 206.232 190.008Z" fill="#FFBEAE"/>
<path d="M192.025 238.339C192.025 238.339 203.566 233.109 207.002 228.334C207.002 228.334 217.374 234.189 238.492 234.959C238.492 234.959 231.196 272.979 211.416 282.965L192.025 238.339Z" fill="#E54728"/>
<path d="M76.0868 67.5199C75.9647 64.2522 72.7111 61.6417 69.5137 62.0455C69.1335 62.0924 68.8095 61.6887 68.8095 61.3412C68.8095 60.9234 69.1335 60.6839 69.5137 60.637C73.4951 60.1346 77.345 63.562 77.4953 67.5199C77.5281 68.426 76.1196 68.426 76.0868 67.5199Z" fill="#180205"/>
<path d="M108.675 71.6608C107.318 71.412 106.515 69.5856 106.881 67.5902C107.252 65.5949 108.651 64.177 110.008 64.4258C111.365 64.6746 112.168 66.501 111.801 68.4964C111.435 70.4965 110.031 71.9097 108.675 71.6608Z" fill="#180205"/>
<path d="M109.778 70.9771C109.249 70.9771 108.82 70.5483 108.82 70.0193C108.82 69.4904 109.249 69.0615 109.778 69.0615C110.307 69.0615 110.736 69.4904 110.736 70.0193C110.736 70.5483 110.307 70.9771 109.778 70.9771Z" fill="white"/>
<path d="M129.772 77.1236C128.481 76.6301 128.023 74.6926 128.748 72.7961C129.473 70.8996 131.107 69.7622 132.398 70.2558C133.689 70.7493 134.148 72.6868 133.423 74.5834C132.698 76.4799 131.063 77.6172 129.772 77.1236Z" fill="#180205"/>
<path d="M130.999 76.6251C130.478 76.5265 130.135 76.0288 130.229 75.5076C130.328 74.9865 130.826 74.6437 131.347 74.7377C131.868 74.8316 132.211 75.3339 132.117 75.8551C132.023 76.3762 131.521 76.7237 130.999 76.6251Z" fill="white"/>
<path d="M114.182 58.6721C113.623 57.672 112.708 56.9068 111.6 56.5922C110.388 56.2448 109.102 56.4842 108.05 57.165C107.29 57.658 106.581 56.442 107.341 55.949C108.693 55.071 110.421 54.7893 111.975 55.2354C113.421 55.6485 114.67 56.6486 115.398 57.9632C115.839 58.7566 114.623 59.4655 114.182 58.6721Z" fill="#180205"/>
<path d="M137.662 66.0547C137.103 65.0546 136.188 64.2893 135.08 63.9748C133.868 63.6273 132.582 63.8668 131.53 64.5476C130.769 65.0405 130.061 63.8245 130.821 63.3316C132.173 62.4536 133.901 62.1719 135.455 62.6179C136.901 63.0311 138.15 64.0311 138.878 65.3457C139.319 66.1345 138.103 66.8481 137.662 66.0547Z" fill="#180205"/>
<path d="M123.394 83.0144C123.262 82.7467 123.145 82.4744 123.027 82.2068C123.29 82.1458 123.553 82.0707 123.816 81.9814C123.675 82.3289 123.534 82.6716 123.394 83.0144Z" fill="#180205"/>
<path d="M124.192 83.3383C122.718 83.8407 121.173 83.9393 119.642 83.6904C118.75 83.5449 119.131 82.188 120.018 82.3336C121.032 82.4979 122.046 82.4415 123.032 82.2068C123.15 82.4791 123.267 82.7514 123.398 83.0143C123.539 82.6716 123.68 82.3242 123.821 81.9814C123.563 82.0706 123.3 82.1457 123.032 82.2068C121.826 79.4414 121.253 76.4319 121.427 73.4083C121.478 72.5069 122.887 72.5022 122.835 73.4083C122.661 76.4789 123.258 79.5447 124.619 82.3054C124.821 82.7279 124.643 83.1881 124.192 83.3383Z" fill="#180205"/>
<path d="M108.736 88.3399C108.158 87.6497 109.149 86.6497 109.731 87.3445C111.966 90.0019 115.647 91.2226 119.018 90.3446C119.896 90.1146 120.271 91.4762 119.393 91.7015C115.572 92.6969 111.29 91.3728 108.736 88.3399Z" fill="#180205"/>
<path d="M90.3829 103.237C98.51 111.688 111.938 112.068 111.938 112.068L112.318 121.402C92.9417 118.406 90.3829 103.237 90.3829 103.237Z" fill="#180205"/>
<path d="M219.388 209.446C222.787 210.296 226.37 210.226 229.75 209.319C231.501 208.85 232.253 211.568 230.497 212.038C224.144 213.742 217.041 212.784 211.604 208.981C206.707 205.559 203.467 200.112 203.651 194.032C203.754 190.624 204.899 187.38 207.05 184.727C207.529 184.135 208.543 184.229 209.04 184.727C209.623 185.309 209.519 186.126 209.04 186.718C205.918 190.567 205.698 196.375 207.909 200.704C210.191 205.174 214.581 208.239 219.388 209.446Z" fill="#180205"/>
</svg>
