<svg width="161" height="47" viewBox="0 0 161 47" fill="none" xmlns="http://www.w3.org/2000/svg">
<path d="M154.824 46.511H5.95476C2.68113 46.511 0 43.8933 0 40.6971V5.81379C0 2.61761 2.68113 -9.52922e-05 5.95476 -9.52922e-05H154.824C158.097 -9.52922e-05 160.779 2.61761 160.779 5.81379V40.6971C160.779 43.8933 158.097 46.511 154.824 46.511Z" fill="black"/>
<path d="M154.824 0.931577C157.581 0.931577 159.824 3.12196 159.824 5.81379V40.6971C159.824 43.3889 157.581 45.5793 154.824 45.5793H5.95476C3.19771 45.5793 0.954251 43.3889 0.954251 40.6971V5.81379C0.954251 3.12196 3.19771 0.931577 5.95476 0.931577H154.824ZM154.824 -9.52922e-05H5.95476C2.68113 -9.52922e-05 0 2.61761 0 5.81379V40.6971C0 43.8933 2.68113 46.511 5.95476 46.511H154.824C158.097 46.511 160.779 43.8933 160.779 40.6971V5.81379C160.779 2.61761 158.097 -9.52922e-05 154.824 -9.52922e-05Z" fill="#A6A6A6"/>
<path d="M56.4721 11.9112C56.4721 12.8821 56.1744 13.6597 55.5879 14.2396C54.9135 14.9271 54.0352 15.273 52.9588 15.273C51.9302 15.273 51.0518 14.9213 50.3313 14.228C49.6093 13.5245 49.249 12.6611 49.249 11.6277C49.249 10.5943 49.6093 9.73095 50.3313 9.03328C51.0518 8.33416 51.9302 7.98242 52.9588 7.98242C53.471 7.98242 53.9592 8.08562 54.4252 8.27748C54.8897 8.47079 55.2678 8.73241 55.5417 9.05508L54.9194 9.66845C54.4416 9.11758 53.791 8.84579 52.9588 8.84579C52.2085 8.84579 51.558 9.10159 51.0057 9.61758C50.4593 10.135 50.1854 10.8051 50.1854 11.6277C50.1854 12.4504 50.4593 13.1263 51.0057 13.6437C51.558 14.1539 52.2085 14.4155 52.9588 14.4155C53.7553 14.4155 54.4252 14.1539 54.9537 13.6379C55.302 13.2963 55.5 12.8254 55.5521 12.2237H52.9588V11.3835H56.4186C56.4602 11.5652 56.4721 11.7411 56.4721 11.9112Z" fill="white" stroke="white" stroke-width="0.252897" stroke-miterlimit="10"/>
<path d="M61.9608 8.99843H58.711V11.2077H61.6408V12.0478H58.711V14.2571H61.9608V15.1132H57.791V8.14233H61.9608V8.99843Z" fill="white" stroke="white" stroke-width="0.252897" stroke-miterlimit="10"/>
<path d="M65.8343 15.1132H64.9143V8.99843H62.9209V8.14233H67.8291V8.99843H65.8343V15.1132Z" fill="white" stroke="white" stroke-width="0.252897" stroke-miterlimit="10"/>
<path d="M71.3809 15.1132V8.14233H72.2994V15.1132H71.3809Z" fill="white" stroke="white" stroke-width="0.252897" stroke-miterlimit="10"/>
<path d="M76.3714 15.1132H75.4588V8.99843H73.458V8.14233H78.3722V8.99843H76.3714V15.1132Z" fill="white" stroke="white" stroke-width="0.252897" stroke-miterlimit="10"/>
<path d="M87.6648 14.2164C86.9606 14.9213 86.0882 15.273 85.0476 15.273C84.0011 15.273 83.1287 14.9213 82.4246 14.2164C81.7219 13.5129 81.3721 12.6495 81.3721 11.6277C81.3721 10.6059 81.7219 9.74258 82.4246 9.0391C83.1287 8.33416 84.0011 7.98242 85.0476 7.98242C86.0823 7.98242 86.9547 8.33416 87.6588 9.04491C88.3674 9.7542 88.7173 10.6118 88.7173 11.6277C88.7173 12.6495 88.3674 13.5129 87.6648 14.2164ZM83.1049 13.6321C83.6349 14.1539 84.2795 14.4155 85.0476 14.4155C85.8099 14.4155 86.4604 14.1539 86.9844 13.6321C87.5129 13.1103 87.7809 12.4402 87.7809 11.6277C87.7809 10.8152 87.5129 10.1452 86.9844 9.62339C86.4604 9.1016 85.8099 8.83997 85.0476 8.83997C84.2795 8.83997 83.6349 9.1016 83.1049 9.62339C82.5764 10.1452 82.3085 10.8152 82.3085 11.6277C82.3085 12.4402 82.5764 13.1103 83.1049 13.6321Z" fill="white" stroke="white" stroke-width="0.252897" stroke-miterlimit="10"/>
<path d="M90.0078 15.1132V8.14233H91.1243L94.596 13.5638H94.6362L94.596 12.2237V8.14233H95.5145V15.1132H94.5558L90.9204 9.4243H90.8802L90.9204 10.7702V15.1132H90.0078Z" fill="white" stroke="white" stroke-width="0.252897" stroke-miterlimit="10"/>
<path d="M81.1458 25.2933C78.3486 25.2933 76.0634 27.3718 76.0634 30.2395C76.0634 33.0839 78.3486 35.1842 81.1458 35.1842C83.949 35.1842 86.2342 33.0839 86.2342 30.2395C86.2342 27.3718 83.949 25.2933 81.1458 25.2933ZM81.1458 33.2365C79.611 33.2365 78.2905 31.9996 78.2905 30.2395C78.2905 28.456 79.611 27.2409 81.1458 27.2409C82.6806 27.2409 84.0071 28.456 84.0071 30.2395C84.0071 31.9996 82.6806 33.2365 81.1458 33.2365ZM70.0566 25.2933C67.2533 25.2933 64.9742 27.3718 64.9742 30.2395C64.9742 33.0839 67.2533 35.1842 70.0566 35.1842C72.8583 35.1842 75.1389 33.0839 75.1389 30.2395C75.1389 27.3718 72.8583 25.2933 70.0566 25.2933ZM70.0566 33.2365C68.5202 33.2365 67.1953 31.9996 67.1953 30.2395C67.1953 28.456 68.5202 27.2409 70.0566 27.2409C71.5914 27.2409 72.9119 28.456 72.9119 30.2395C72.9119 31.9996 71.5914 33.2365 70.0566 33.2365ZM56.8608 26.8093V28.911H62.0012C61.8509 30.0854 61.4489 30.9487 60.8326 31.5505C60.0823 32.2772 58.9137 33.0839 56.8608 33.0839C53.6973 33.0839 51.2201 30.5912 51.2201 27.5026C51.2201 24.4139 53.6973 21.9212 56.8608 21.9212C58.5713 21.9212 59.8159 22.5738 60.7344 23.4198L62.2514 21.9387C60.9666 20.741 59.2576 19.821 56.8608 19.821C52.5228 19.821 48.877 23.2672 48.877 27.5026C48.877 31.738 52.5228 35.1842 56.8608 35.1842C59.2055 35.1842 60.9666 34.4342 62.3511 33.0272C63.7698 31.642 64.212 29.6944 64.212 28.1217C64.212 27.6334 64.1703 27.1843 64.0958 26.8093H56.8608ZM110.82 28.4386C110.402 27.3325 109.111 25.2933 106.482 25.2933C103.877 25.2933 101.708 27.2976 101.708 30.2395C101.708 33.0098 103.854 35.1842 106.732 35.1842C109.059 35.1842 110.402 33.799 110.954 32.9923L109.227 31.8688C108.651 32.6915 107.866 33.2365 106.732 33.2365C105.605 33.2365 104.797 32.7322 104.279 31.738L111.054 29.0011L110.82 28.4386ZM103.912 30.0854C103.854 28.1784 105.429 27.2017 106.558 27.2017C107.442 27.2017 108.192 27.6334 108.442 28.2511L103.912 30.0854ZM98.4057 34.8833H100.633V20.3486H98.4057V34.8833ZM94.7584 26.395H94.684C94.1838 25.8165 93.2295 25.2933 92.0207 25.2933C89.484 25.2933 87.1646 27.4677 87.1646 30.2554C87.1646 33.0272 89.484 35.1842 92.0207 35.1842C93.2295 35.1842 94.1838 34.6565 94.684 34.0606H94.7584V34.7699C94.7584 36.6609 93.7237 37.6769 92.0549 37.6769C90.6943 37.6769 89.8502 36.7176 89.5018 35.9109L87.565 36.7001C88.1233 38.0112 89.6016 39.6245 92.0549 39.6245C94.6661 39.6245 96.8694 38.1245 96.8694 34.4749V25.5942H94.7584V26.395ZM92.2112 33.2365C90.6764 33.2365 89.3917 31.9822 89.3917 30.2554C89.3917 28.5127 90.6764 27.2409 92.2112 27.2409C93.7238 27.2409 94.9162 28.5127 94.9162 30.2554C94.9162 31.9822 93.7238 33.2365 92.2112 33.2365ZM121.247 20.3486H115.92V34.8833H118.141V29.3761H121.247C123.713 29.3761 126.133 27.6334 126.133 24.8616C126.133 22.0913 123.707 20.3486 121.247 20.3486ZM121.305 27.3543H118.141V22.3704H121.305C122.963 22.3704 123.91 23.7148 123.91 24.8616C123.91 25.9866 122.963 27.3543 121.305 27.3543ZM135.035 25.2657C133.43 25.2657 131.761 25.9575 131.075 27.4909L133.046 28.2976C133.47 27.4909 134.25 27.2293 135.075 27.2293C136.227 27.2293 137.396 27.9052 137.414 29.0985V29.2511C137.012 29.0243 136.151 28.6886 135.093 28.6886C132.97 28.6886 130.807 29.8296 130.807 31.9589C130.807 33.9066 132.546 35.1609 134.5 35.1609C135.995 35.1609 136.82 34.5025 137.338 33.7365H137.414V34.86H139.559V29.2845C139.559 26.7075 137.588 25.2657 135.035 25.2657ZM134.767 33.2307C134.04 33.2307 133.028 32.879 133.028 31.9996C133.028 30.8746 134.291 30.4429 135.383 30.4429C136.361 30.4429 136.82 30.6537 137.414 30.9313C137.24 32.2772 136.053 33.2307 134.767 33.2307ZM147.375 25.584L144.822 31.8848H144.746L142.106 25.584H139.711L143.677 34.3891L141.414 39.2888H143.735L149.846 25.584H147.375ZM127.353 34.8833H129.58V20.3486H127.353V34.8833Z" fill="white"/>
<path d="M12.4273 8.76572C12.0775 9.12328 11.875 9.67996 11.875 10.4009V36.1157C11.875 36.8366 12.0775 37.3933 12.4273 37.7509L12.5136 37.8293L27.2725 23.4254V23.0853L12.5136 8.68142L12.4273 8.76572Z" fill="url(#paint0_linear_5904_5997)"/>
<path d="M32.1866 28.229L27.2725 23.4253V23.0852L32.1926 18.2814L32.3027 18.3439L38.1295 21.5808C39.7923 22.4994 39.7923 24.011 38.1295 24.9354L32.3027 28.1665L32.1866 28.229Z" fill="url(#paint1_linear_5904_5997)"/>
<path d="M32.3032 28.1669L27.273 23.2556L12.4277 37.7511C12.98 38.3179 13.8807 38.3862 14.9049 37.8194L32.3032 28.1669Z" fill="url(#paint2_linear_5904_5997)"/>
<path d="M32.3032 18.3443L14.9049 8.69183C13.8807 8.13079 12.98 8.19911 12.4277 8.76596L27.273 23.2556L32.3032 18.3443Z" fill="url(#paint3_linear_5904_5997)"/>
<defs>
<linearGradient id="paint0_linear_5904_5997" x1="25.9621" y1="36.3835" x2="6.45352" y2="16.4022" gradientUnits="userSpaceOnUse">
<stop stop-color="#00A0FF"/>
<stop offset="0.0066" stop-color="#00A1FF"/>
<stop offset="0.2601" stop-color="#00BEFF"/>
<stop offset="0.5122" stop-color="#00D2FF"/>
<stop offset="0.7604" stop-color="#00DFFF"/>
<stop offset="1" stop-color="#00E3FF"/>
</linearGradient>
<linearGradient id="paint1_linear_5904_5997" x1="40.2948" y1="23.2536" x2="11.4775" y2="23.2536" gradientUnits="userSpaceOnUse">
<stop stop-color="#FFE000"/>
<stop offset="0.4087" stop-color="#FFBD00"/>
<stop offset="0.7754" stop-color="#FFA500"/>
<stop offset="1" stop-color="#FF9C00"/>
</linearGradient>
<linearGradient id="paint2_linear_5904_5997" x1="29.5679" y1="20.5858" x2="3.11268" y2="-6.51053" gradientUnits="userSpaceOnUse">
<stop stop-color="#FF3A44"/>
<stop offset="1" stop-color="#C31162"/>
</linearGradient>
<linearGradient id="paint3_linear_5904_5997" x1="8.69088" y1="46.3063" x2="20.5043" y2="34.2067" gradientUnits="userSpaceOnUse">
<stop stop-color="#32A071"/>
<stop offset="0.0685" stop-color="#2DA771"/>
<stop offset="0.4762" stop-color="#15CF74"/>
<stop offset="0.8009" stop-color="#06E775"/>
<stop offset="1" stop-color="#00F076"/>
</linearGradient>
</defs>
</svg>
