<svg width="40" height="12" viewBox="0 0 40 12" fill="none" xmlns="http://www.w3.org/2000/svg">
<g clip-path="url(#clip0_5904_5960)">
<path fill-rule="evenodd" clip-rule="evenodd" d="M6.92719 1.19324C6.78875 0.968649 6.60964 0.774248 6.39832 0.618802C6.18351 0.472049 5.94969 0.356877 5.70201 0.27916C5.4339 0.191012 5.15681 0.132393 4.87484 0.104061C4.54563 0.0726962 4.21641 0.0562015 3.88556 0.0577242H1.0239C0.743447 0.0324261 0.497834 0.243119 0.479772 0.524588C0.479772 0.524588 0.479772 0.541087 0.479772 0.549875V5.21397C0.876265 6.06781 1.53482 6.7725 2.36079 7.22439V6.28772C2.33387 5.98412 2.55742 5.71633 2.86145 5.69104H3.71997C4.88978 5.69104 5.78421 5.4441 6.40102 4.95215C7.01685 4.46 7.32974 3.73164 7.3385 2.7635C7.34001 2.48562 7.30724 2.2073 7.2416 1.93646C7.17637 1.67335 7.07028 1.42325 6.92719 1.19324ZM5.25068 3.59074C5.15075 3.76311 5.0015 3.90206 4.82444 3.99009C4.63075 4.08311 4.42189 4.13836 4.20862 4.15314C3.97478 4.18309 3.73782 4.19807 3.50248 4.19655H2.67823C2.47987 4.19655 2.35788 4.03676 2.35788 3.80014V1.87666C2.34446 1.69722 2.49945 1.55047 2.67823 1.57152H3.50248C3.76908 1.57152 4.02097 1.57912 4.25631 1.59562C4.46808 1.60442 4.67531 1.65544 4.86609 1.7451C5.04357 1.82271 5.19088 1.9559 5.28767 2.12328C5.3968 2.34776 5.4472 2.59785 5.4339 2.84751C5.43833 3.10619 5.37571 3.36203 5.25068 3.58803V3.59074ZM2.36199 7.50554C1.65735 7.24968 1.01482 6.84448 0.479772 6.31639V8.57039C0.454243 8.75156 0.583918 8.91774 0.765942 8.93565H2.05947C2.40244 8.93565 2.36199 8.56767 2.36199 8.56767V7.50554ZM20.1382 2.51394H19.0233C18.8028 2.49896 18.6049 2.64713 18.554 2.86076L17.2572 6.44665C17.2572 6.44665 16.1125 3.18109 16.0262 2.92827C15.977 2.6874 15.7684 2.51395 15.5242 2.5109H14.4956C14.1289 2.5109 14.1289 2.79813 14.1782 2.91025C14.2273 3.02249 15.6315 6.88767 16.1813 8.36708C16.2678 8.54976 16.3288 8.74265 16.3616 8.94151C16.3258 9.13745 16.2529 9.32589 16.1438 9.49359C16.1023 9.56371 16.0546 9.63112 16.001 9.69386C17.0606 9.37842 18.2903 8.22651 18.9089 6.98341C19.5315 5.26021 20.3531 2.96268 20.3901 2.84437C20.4304 2.66364 20.4304 2.51394 20.1382 2.51394ZM15.1663 10.0439C15.0694 10.0424 14.974 10.0336 14.8801 10.0213C14.7622 10.0037 14.5387 10.0213 14.5387 10.2219V11.0835C14.5387 11.4141 14.6996 11.4382 14.7818 11.4604C15.0472 11.519 15.3181 11.5472 15.5894 11.5458C15.9099 11.5546 16.2273 11.4887 16.5196 11.3543C16.7848 11.2195 17.0217 11.0312 17.2141 10.8021C17.433 10.5525 17.6182 10.2745 17.7643 9.975C17.9222 9.65782 18.0726 9.30634 18.2157 8.92186L18.3827 8.46434C18.0504 8.79476 16.5853 10.1814 15.1663 10.0439ZM13.4775 3.5444C13.4166 3.39926 13.333 3.26477 13.2318 3.14494C13.1273 3.03584 13.0098 2.93858 12.8816 2.85782C12.7428 2.7635 12.5955 2.68274 12.4417 2.61728C12.2837 2.55562 12.1227 2.50776 11.9575 2.47064C11.7698 2.42852 11.5775 2.40171 11.3851 2.38825C11.1796 2.3673 10.9483 2.35536 10.6935 2.35536C8.98721 2.35536 8.01695 2.89538 7.77999 3.97522C7.7365 4.14749 7.8558 4.31638 8.03187 4.33136H9.0826C9.36878 4.33136 9.36878 4.24322 9.47736 3.99627C9.52506 3.86179 9.61018 3.74347 9.7232 3.65663C9.99175 3.48306 10.3092 3.40079 10.6266 3.42488C10.9246 3.3934 11.2227 3.4683 11.4714 3.63438C11.6607 3.8124 11.7725 4.05739 11.783 4.31791C11.783 4.67405 11.6744 4.90873 11.2329 4.90873C10.1898 4.87117 9.06768 4.9895 8.4354 5.35444C7.80054 5.74358 7.42362 6.44209 7.4446 7.18683C7.43854 7.4709 7.49532 7.7552 7.6144 8.01397C7.72473 8.23845 7.88717 8.4359 8.0852 8.5883C8.29545 8.75915 8.53696 8.88627 8.79643 8.96095C9.08823 9.0417 9.39083 9.08046 9.69335 9.07623C10.1021 9.08349 10.5087 9.02531 10.8991 8.90396C11.2436 8.76187 11.5697 8.57798 11.8693 8.35513V8.55693C11.8693 8.75449 11.9292 8.93272 12.1555 8.93272H13.3718C13.6176 8.93272 13.6744 8.75764 13.6744 8.53902V4.78011C13.676 4.54542 13.6596 4.31172 13.6267 4.07856C13.5985 3.89587 13.5494 3.71666 13.4775 3.5444ZM11.8144 7.23775C11.8144 7.23775 11.5001 7.8988 10.3836 7.8988C10.1169 7.91106 9.85136 7.83736 9.62781 7.68962C9.42815 7.53375 9.32108 7.28713 9.34163 7.03443C9.31643 6.69175 9.50419 6.37001 9.81437 6.22487C10.2657 6.0499 10.7472 5.96914 11.2317 5.98554C11.5462 5.93919 11.8278 6.18472 11.8263 6.50331L11.8144 7.23775Z" fill="#333333"/>
<path fill-rule="evenodd" clip-rule="evenodd" d="M39.6269 4.82032C39.9146 5.28415 39.9146 5.87226 39.6269 6.33717C39.3407 6.77255 37.7806 8.44474 37.2663 8.98206C36.8191 9.44697 36.2155 9.91828 35.618 9.91828H23.2296C21.5527 9.91828 21.4531 9.34395 21.4531 8.06352V2.83867C21.4531 1.52664 21.8388 1.1438 22.9867 1.1438H35.6464C36.2381 1.1438 36.7685 1.44903 37.3633 2.06374C37.8833 2.58857 39.4198 4.50944 39.6269 4.82032Z" fill="#33CCCC"/>
<path fill-rule="evenodd" clip-rule="evenodd" d="M37.1714 6.79656C36.7959 7.81212 35.8063 8.46427 34.7287 8.40761C33.08 8.40761 31.9801 7.28111 31.9801 5.5922C31.9801 3.90352 33.1247 2.72025 34.6704 2.72025C36.216 2.72025 37.2459 3.79443 37.3114 5.52642C37.3114 5.74764 37.2576 5.94381 36.9806 5.94381H33.4826C33.5062 6.87122 33.9492 7.37979 34.739 7.37979C35.1683 7.39008 35.5631 7.14922 35.7524 6.76517C35.8268 6.65566 35.9509 6.59281 36.0817 6.59433H36.9837C37.0982 6.58988 37.1893 6.69321 37.1684 6.80685L37.1714 6.79656ZM24.266 3.1629V3.13154C24.266 2.96263 24.266 2.79808 23.9799 2.79808H22.9409C22.6978 2.79808 22.686 2.92962 22.686 3.13761V4.51541C23.0957 3.9437 23.6385 3.47877 24.266 3.1629ZM31.2231 8.14862V4.74858C31.2231 3.35602 30.6107 2.66064 29.3856 2.66064C29.0441 2.66477 28.7118 2.76345 28.4241 2.94775C28.1066 3.1464 27.8235 3.39496 27.585 3.68372C27.4778 3.37078 27.2676 3.10472 26.9902 2.92823C26.6743 2.75323 26.3168 2.66772 25.9574 2.68267C25.427 2.68584 24.9142 2.86386 24.4953 3.18863C24.403 3.28123 22.6829 4.6246 22.6829 6.02608V8.1545C22.6829 8.22027 22.6486 8.47926 22.9379 8.47926H24.0168C24.3522 8.47926 24.321 8.25782 24.321 8.16675V4.72036C24.5013 4.47493 24.8697 3.8931 25.4789 3.8931C25.6773 3.8752 25.8712 3.96626 25.9829 4.13094C26.105 4.37603 26.1589 4.6499 26.1378 4.92367V8.16056C26.1378 8.22646 26.1036 8.48535 26.3927 8.48535H27.46C27.7938 8.48535 27.7625 8.26401 27.7625 8.17099V4.70808C27.9575 4.46462 28.3348 3.88085 28.9221 3.88085C29.1231 3.86444 29.3169 3.95455 29.4348 4.11878C29.5585 4.36421 29.6133 4.63797 29.5913 4.91184V8.14862C29.5913 8.21462 29.5568 8.47306 29.8461 8.47306H30.9252C31.2634 8.4569 31.2231 8.23839 31.2231 8.14862ZM34.6764 3.79129C34.0206 3.79129 33.5779 4.24881 33.481 5.00137H35.8268C35.7673 4.34314 35.4125 3.79129 34.6764 3.79129Z" fill="white"/>
</g>
<defs>
<clipPath id="clip0_5904_5960">
<rect width="39.5419" height="11.63" fill="white" transform="translate(0.396484 0.0117188)"/>
</clipPath>
</defs>
</svg>
